<svg width="120" height="120" viewBox="0 0 120 120" fill="none" xmlns="http://www.w3.org/2000/svg">
<g filter="url(#filter0_d_101_333)">
<path d="M110 56C110 83.6142 87.6142 106 60 106C32.3858 106 10 83.6142 10 56C10 28.3858 32.3858 6 60 6C87.6142 6 110 28.3858 110 56ZM35.2185 56C35.2185 69.6865 46.3135 80.7815 60 80.7815C73.6865 80.7815 84.7815 69.6865 84.7815 56C84.7815 42.3135 73.6865 31.2185 60 31.2185C46.3135 31.2185 35.2185 42.3135 35.2185 56Z" fill="url(#paint0_linear_101_333)"/>
</g>
<defs>
<filter id="filter0_d_101_333" x="0" y="0" width="120" height="120" filterUnits="userSpaceOnUse" color-interpolation-filters="sRGB">
<feFlood flood-opacity="0" result="BackgroundImageFix"/>
<feColorMatrix in="SourceAlpha" type="matrix" values="0 0 0 0 0 0 0 0 0 0 0 0 0 0 0 0 0 0 127 0" result="hardAlpha"/>
<feOffset dy="4"/>
<feGaussianBlur stdDeviation="5"/>
<feComposite in2="hardAlpha" operator="out"/>
<feColorMatrix type="matrix" values="0 0 0 0 0.564706 0 0 0 0 0.929412 0 0 0 0 0.756863 0 0 0 0.5 0"/>
<feBlend mode="normal" in2="BackgroundImageFix" result="effect1_dropShadow_101_333"/>
<feBlend mode="normal" in="SourceGraphic" in2="effect1_dropShadow_101_333" result="shape"/>
</filter>
<linearGradient id="paint0_linear_101_333" x1="60" y1="6" x2="60" y2="106" gradientUnits="userSpaceOnUse">
<stop stop-color="#F2FFF9"/>
<stop offset="1" stop-color="#90EDC1"/>
</linearGradient>
</defs>
</svg>
